<svg xmlns="http://www.w3.org/2000/svg" viewBox="0 0 512 512" width="512" height="512">
  <defs>
    <linearGradient id="bg" x1="0%" y1="0%" x2="100%" y2="100%">
      <stop offset="0%" stop-color="#080818"/>
      <stop offset="100%" stop-color="#12061e"/>
    </linearGradient>
    <linearGradient id="border" x1="0%" y1="0%" x2="100%" y2="100%">
      <stop offset="0%" stop-color="#00e5ff" stop-opacity="0.3"/>
      <stop offset="50%" stop-color="#8822ee" stop-opacity="0.3"/>
      <stop offset="100%" stop-color="#ff0066" stop-opacity="0.3"/>
    </linearGradient>
  </defs>

  <!-- Background -->
  <rect width="512" height="512" rx="100" fill="url(#bg)"/>
  <rect width="512" height="512" rx="100" fill="none" stroke="url(#border)" stroke-width="3"/>

  <!-- Spectrum bars - solid bright fills, cyan→blue→purple→magenta→pink -->
  <rect x="56" y="295" width="24" height="65" rx="5" fill="#00ddff"/>
  <rect x="88" y="255" width="24" height="105" rx="5" fill="#00bbff"/>
  <rect x="120" y="210" width="24" height="150" rx="5" fill="#2299ff"/>
  <rect x="152" y="170" width="24" height="190" rx="5" fill="#4477ff"/>
  <rect x="184" y="130" width="24" height="230" rx="5" fill="#7744ee"/>
  <rect x="216" y="95" width="24" height="265" rx="5" fill="#aa33dd"/>
  <rect x="248" y="70" width="24" height="290" rx="5" fill="#dd1199"/>
  <rect x="280" y="90" width="24" height="270" rx="5" fill="#ee2277"/>
  <rect x="312" y="125" width="24" height="235" rx="5" fill="#aa33dd"/>
  <rect x="344" y="165" width="24" height="195" rx="5" fill="#7744ee"/>
  <rect x="376" y="205" width="24" height="155" rx="5" fill="#3388ff"/>
  <rect x="408" y="248" width="24" height="112" rx="5" fill="#00bbff"/>
  <rect x="440" y="288" width="24" height="72" rx="5" fill="#00ddff"/>

  <!-- Bright white-ish top caps -->
  <rect x="56" y="293" width="24" height="5" rx="2" fill="#88ffff"/>
  <rect x="88" y="253" width="24" height="5" rx="2" fill="#77eeff"/>
  <rect x="120" y="208" width="24" height="5" rx="2" fill="#88ccff"/>
  <rect x="152" y="168" width="24" height="5" rx="2" fill="#99aaff"/>
  <rect x="184" y="128" width="24" height="5" rx="2" fill="#bb88ff"/>
  <rect x="216" y="93" width="24" height="5" rx="2" fill="#dd77ee"/>
  <rect x="248" y="68" width="24" height="5" rx="2" fill="#ff66bb"/>
  <rect x="280" y="88" width="24" height="5" rx="2" fill="#ff77aa"/>
  <rect x="312" y="123" width="24" height="5" rx="2" fill="#cc77ee"/>
  <rect x="344" y="163" width="24" height="5" rx="2" fill="#aa88ff"/>
  <rect x="376" y="203" width="24" height="5" rx="2" fill="#77ccff"/>
  <rect x="408" y="246" width="24" height="5" rx="2" fill="#77eeff"/>
  <rect x="440" y="286" width="24" height="5" rx="2" fill="#88ffff"/>

  <!-- Floor line -->
  <line x1="50" y1="362" x2="470" y2="362" stroke="#ffffff" stroke-width="1" opacity="0.15"/>

  <!-- Faint reflections below -->
  <rect x="56" y="365" width="24" height="16" rx="4" fill="#00ddff" opacity="0.12"/>
  <rect x="88" y="365" width="24" height="25" rx="4" fill="#00bbff" opacity="0.10"/>
  <rect x="120" y="365" width="24" height="35" rx="4" fill="#2299ff" opacity="0.09"/>
  <rect x="152" y="365" width="24" height="42" rx="4" fill="#4477ff" opacity="0.08"/>
  <rect x="184" y="365" width="24" height="48" rx="4" fill="#7744ee" opacity="0.08"/>
  <rect x="216" y="365" width="24" height="52" rx="4" fill="#aa33dd" opacity="0.09"/>
  <rect x="248" y="365" width="24" height="56" rx="4" fill="#dd1199" opacity="0.10"/>
  <rect x="280" y="365" width="24" height="52" rx="4" fill="#ee2277" opacity="0.09"/>
  <rect x="312" y="365" width="24" height="46" rx="4" fill="#aa33dd" opacity="0.08"/>
  <rect x="344" y="365" width="24" height="40" rx="4" fill="#7744ee" opacity="0.08"/>
  <rect x="376" y="365" width="24" height="30" rx="4" fill="#3388ff" opacity="0.09"/>
  <rect x="408" y="365" width="24" height="22" rx="4" fill="#00bbff" opacity="0.10"/>
  <rect x="440" y="365" width="24" height="14" rx="4" fill="#00ddff" opacity="0.12"/>

  <!-- MIDIVIZ text -->
  <text x="210" y="460" text-anchor="middle" font-family="Impact, Arial Black, sans-serif" font-size="58" font-weight="900" fill="#00e5ff">MIDI</text>
  <text x="332" y="460" text-anchor="middle" font-family="Impact, Arial Black, sans-serif" font-size="58" font-weight="900" fill="#ff0066">VIZ</text>
</svg>
